<svg height="40" viewBox="0 0 199 40" width="199" xmlns="http://www.w3.org/2000/svg"><g fill="none" fill-rule="evenodd"><rect fill="#fff" height="39" rx="19.5" stroke="#e4eaf2" width="198" x=".5" y=".5"/><path d="m61.254 24h-1.162v-9.338h3.752c1.876 0 2.926 1.288 2.926 2.814s-1.064 2.814-2.926 2.814h-2.59zm2.45-4.746c1.106 0 1.862-.728 1.862-1.778s-.756-1.778-1.862-1.778h-2.45v3.556zm7.336 4.914c-2.058 0-3.346-1.596-3.346-3.556s1.288-3.542 3.346-3.542 3.346 1.582 3.346 3.542-1.288 3.556-3.346 3.556zm0-.938c1.442 0 2.24-1.232 2.24-2.618 0-1.372-.798-2.604-2.24-2.604s-2.24 1.232-2.24 2.604c0 1.386.798 2.618 2.24 2.618zm11.97.77h-1.064l-1.764-5.432-1.764 5.432h-1.05l-2.156-6.762h1.092l1.652 5.39 1.778-5.39h.91l1.764 5.39 1.652-5.39h1.106zm6.426.168c-2.016 0-3.458-1.442-3.458-3.556 0-1.96 1.4-3.542 3.332-3.542 2.044 0 3.248 1.596 3.248 3.626v.266h-5.46c.084 1.274.966 2.338 2.422 2.338.784 0 1.554-.308 2.1-.868l.504.686c-.686.672-1.596 1.05-2.688 1.05zm2.086-3.99c-.014-.994-.686-2.24-2.226-2.24-1.442 0-2.156 1.218-2.212 2.24zm3.78 3.822h-1.05v-6.762h1.05v1.078c.546-.7 1.33-1.232 2.254-1.232v1.078c-.126-.014-.252-.028-.406-.028-.658 0-1.54.532-1.848 1.078zm6.636.168c-2.016 0-3.458-1.442-3.458-3.556 0-1.96 1.4-3.542 3.332-3.542 2.044 0 3.248 1.596 3.248 3.626v.266h-5.46c.084 1.274.966 2.338 2.422 2.338.784 0 1.554-.308 2.1-.868l.504.686c-.686.672-1.596 1.05-2.688 1.05zm2.086-3.99c-.014-.994-.686-2.24-2.226-2.24-1.442 0-2.156 1.218-2.212 2.24zm8.68 3.822h-1.05v-1.008c-.504.686-1.33 1.176-2.282 1.176-1.764 0-3.01-1.344-3.01-3.542 0-2.17 1.246-3.556 3.01-3.556.91 0 1.736.448 2.282 1.19v-3.598h1.05zm-3.066-.77c.826 0 1.652-.49 2.016-1.078v-3.052c-.364-.588-1.19-1.092-2.016-1.092-1.372 0-2.184 1.12-2.184 2.618s.812 2.604 2.184 2.604zm9.842-1.064c.364.588 1.19 1.064 2.03 1.064 1.358 0 2.17-1.106 2.17-2.604s-.812-2.618-2.17-2.618c-.84 0-1.666.504-2.03 1.092zm0 1.834h-1.05v-9.338h1.05v3.598c.546-.742 1.372-1.19 2.282-1.19 1.778 0 3.01 1.386 3.01 3.556 0 2.198-1.246 3.542-3.01 3.542-.952 0-1.778-.49-2.282-1.176zm6.636 2.646.154-.952c.154.07.406.112.574.112.462 0 .77-.154 1.008-.714l.448-1.022-2.828-6.832h1.148l2.24 5.544 2.254-5.544h1.134l-3.388 8.134c-.406.98-1.092 1.358-1.988 1.372-.224 0-.574-.042-.756-.098zm14.938-2.478c-2.842 0-4.214-1.596-4.214-3.906v-5.6h2.016v5.544c0 1.302.756 2.198 2.198 2.198s2.184-.896 2.184-2.198v-5.544h2.03v5.6c0 2.31-1.372 3.906-4.214 3.906zm9.884 0c-.798 0-1.526-.336-2.086-1.036v3.444h-1.778v-9.338h1.778v.854c.518-.658 1.26-1.022 2.086-1.022 1.736 0 2.996 1.288 2.996 3.542s-1.26 3.556-2.996 3.556zm-.56-1.582c1.022 0 1.722-.798 1.722-1.974 0-1.162-.7-1.96-1.722-1.96-.574 0-1.218.322-1.526.77v2.38c.294.434.952.784 1.526.784zm11.214 1.414h-1.778v-4.116c0-.938-.49-1.232-1.246-1.232-.7 0-1.246.392-1.54.784v4.564h-1.792v-9.338h1.792v3.444c.434-.504 1.26-1.036 2.366-1.036 1.484 0 2.198.812 2.198 2.128zm4.9.168c-2.226 0-3.57-1.638-3.57-3.556s1.344-3.542 3.57-3.542c2.24 0 3.584 1.624 3.584 3.542s-1.344 3.556-3.584 3.556zm0-1.582c1.12 0 1.736-.91 1.736-1.974 0-1.05-.616-1.96-1.736-1.96-1.106 0-1.722.91-1.722 1.96 0 1.064.616 1.974 1.722 1.974zm6.692 1.414h-1.778v-9.338h1.778zm8.204 0h-1.792v-.868c-.532.672-1.26 1.036-2.086 1.036-1.694 0-2.996-1.288-2.996-3.556 0-2.198 1.274-3.542 2.996-3.542.798 0 1.554.336 2.086 1.036v-3.444h1.792zm-3.318-1.414c.588 0 1.232-.322 1.526-.77v-2.394c-.294-.448-.938-.77-1.526-.77-1.022 0-1.722.798-1.722 1.96 0 1.176.7 1.974 1.722 1.974z" fill="#3c4a5b" fill-rule="nonzero"/><path d="m46 8h1v24h-1z" fill="#e4eaf2"/><path d="m31.4957 21.8694c-.5499 1.2353-1.2597 2.3426-2.0472 3.255.569-2.2066.2948-5.0554-.9367-7.8221-.6436-1.4458-1.4967-2.7464-2.4872-3.8067 1.55-1.2366 3.1635-1.6402 4.4105-1.0711.7987.3649 1.4153 1.1114 1.7822 2.1598.6951 1.9854.4254 4.709-.7216 7.2851zm-12.9916 0c-1.147-2.5761-1.4168-5.2997-.7216-7.2851.3668-1.0484.9831-1.795 1.7822-2.1598 1.247-.5694 2.8605-.1655 4.4105 1.0711-.9905 1.0603-1.8436 2.3609-2.4872 3.8064-1.2315 2.7667-1.5055 5.6158-.9368 7.822-.7875-.9123-1.4972-2.0196-2.0471-3.2546zm7.6582 5.5824c-.3576.1633-.7487.2487-1.1626.2543-.4136-.0056-.8046-.091-1.1625-.2543-2.401-1.0961-2.8867-5.4878-1.0606-9.5901.5794-1.3012 1.3405-2.4694 2.2217-3.4146.8818.9457 1.6448 2.1126 2.2246 3.4148 1.8264 4.1021 1.3407 8.4938-1.0606 9.59zm3.2606-16.6642c-1.423-.0584-2.9737.5426-4.4229 1.7406-1.4488-1.1982-2.9999-1.8001-4.4229-1.7417 1.2552-.8868 2.7882-1.3958 4.422-1.3958 1.6348 0 3.168.5096 4.4238 1.3969zm4.1306 3.3608c-.0003-.0014-.0003-.003-.0008-.0044-.0009-.0028-.002-.0053-.0028-.0076-.0009-.0022-.0015-.0047-.0023-.007-.0014-.0046-.0037-.009-.0053-.0138-1.2017-3.6587-4.6304-6.1156-8.5431-6.1156-3.9232 0-7.3606 2.4691-8.5535 6.144-.002.006-.002.0122-.004.0183-.7942 2.3047-.5062 5.3913.7737 8.2673 1.7516 3.9344 4.9297 6.668 7.7444 6.668.0135 0 .0267-.0003.04-.0003.0134 0 .0267.0003.0402.0003 2.8147-.0003 5.9928-2.7336 7.7443-6.668 1.2828-2.8813 1.5694-5.9748.7692-8.2812zm-6.1465 17.113c-.7906.2308-1.579.3479-2.343.3479h-.1116c-.7692 0-1.5629-.1185-2.3585-.3524-.373-.109-.7644.1007-.8754.4684-.1106.3682.1014.7554.4742.8647.926.272 1.8546.41 2.7597.41h.1115c.8993 0 1.822-.1363 2.742-.405.3731-.109.586-.4956.4756-.8639-.1101-.3683-.5015-.5794-.8745-.4698z" fill="#49cc68"/></g></svg>