<svg height="40" viewBox="0 0 129 40" width="129" xmlns="http://www.w3.org/2000/svg"><g fill="none" fill-rule="evenodd"><rect fill="#49cc68" height="40" rx="20" width="129"/><g fill="#fff"><path d="m64.79 24.168c-2.814 0-4.984-1.96-4.984-4.83 0-2.884 2.17-4.83 4.984-4.83 2.044 0 3.234 1.106 3.892 2.282l-1.708.84c-.392-.756-1.232-1.358-2.184-1.358-1.708 0-2.94 1.302-2.94 3.066s1.232 3.066 2.94 3.066c.952 0 1.792-.602 2.184-1.358l1.708.826c-.658 1.162-1.848 2.296-3.892 2.296zm8.176 0c-2.226 0-3.57-1.638-3.57-3.556s1.344-3.542 3.57-3.542c2.24 0 3.584 1.624 3.584 3.542s-1.344 3.556-3.584 3.556zm0-1.582c1.12 0 1.736-.91 1.736-1.974 0-1.05-.616-1.96-1.736-1.96-1.106 0-1.722.91-1.722 1.96 0 1.064.616 1.974 1.722 1.974zm11.27 1.414h-1.792v-4.088c0-.938-.49-1.26-1.246-1.26-.7 0-1.232.392-1.54.784v4.564h-1.778v-6.762h1.778v.868c.434-.504 1.274-1.036 2.366-1.036 1.498 0 2.212.84 2.212 2.156zm8.106 0h-1.792v-4.088c0-.938-.49-1.26-1.246-1.26-.7 0-1.232.392-1.54.784v4.564h-1.778v-6.762h1.778v.868c.434-.504 1.274-1.036 2.366-1.036 1.498 0 2.212.84 2.212 2.156zm4.928.168c-2.058 0-3.612-1.386-3.612-3.556 0-1.96 1.456-3.542 3.5-3.542 2.03 0 3.388 1.512 3.388 3.71v.42h-5.026c.126.826.798 1.512 1.946 1.512.574 0 1.358-.238 1.792-.658l.798 1.176c-.672.616-1.736.938-2.786.938zm1.568-4.2c-.056-.644-.504-1.442-1.68-1.442-1.106 0-1.582.77-1.652 1.442zm6.146 4.2c-2.072 0-3.584-1.47-3.584-3.556 0-2.072 1.512-3.542 3.584-3.542 1.386 0 2.226.602 2.674 1.218l-1.162 1.092c-.322-.476-.812-.728-1.428-.728-1.078 0-1.834.784-1.834 1.96s.756 1.974 1.834 1.974c.616 0 1.106-.28 1.428-.742l1.162 1.092c-.448.616-1.288 1.232-2.674 1.232zm6.104 0c-1.246 0-1.904-.644-1.904-1.862v-3.514h-1.12v-1.554h1.12v-1.848h1.778v1.848h1.372v1.554h-1.372v3.038c0 .434.224.756.616.756.266 0 .518-.098.616-.21l.378 1.358c-.266.238-.742.434-1.484.434z" fill-rule="nonzero"/><path d="m46 8h1v24h-1z" opacity=".24"/><path d="m31.4957 21.8694c-.5499 1.2353-1.2597 2.3426-2.0472 3.255.569-2.2066.2948-5.0554-.9367-7.8221-.6436-1.4458-1.4967-2.7464-2.4872-3.8067 1.55-1.2366 3.1635-1.6402 4.4105-1.0711.7987.3649 1.4153 1.1114 1.7822 2.1598.6951 1.9854.4254 4.709-.7216 7.2851zm-12.9916 0c-1.147-2.5761-1.4168-5.2997-.7216-7.2851.3668-1.0484.9831-1.795 1.7822-2.1598 1.247-.5694 2.8605-.1655 4.4105 1.0711-.9905 1.0603-1.8436 2.3609-2.4872 3.8064-1.2315 2.7667-1.5055 5.6158-.9368 7.822-.7875-.9123-1.4972-2.0196-2.0471-3.2546zm7.6582 5.5824c-.3576.1633-.7487.2487-1.1626.2543-.4136-.0056-.8046-.091-1.1625-.2543-2.401-1.0961-2.8867-5.4878-1.0606-9.5901.5794-1.3012 1.3405-2.4694 2.2217-3.4146.8818.9457 1.6448 2.1126 2.2246 3.4148 1.8264 4.1021 1.3407 8.4938-1.0606 9.59zm3.2606-16.6642c-1.423-.0584-2.9737.5426-4.4229 1.7406-1.4488-1.1982-2.9999-1.8001-4.4229-1.7417 1.2552-.8868 2.7882-1.3958 4.422-1.3958 1.6348 0 3.168.5096 4.4238 1.3969zm4.1306 3.3608c-.0003-.0014-.0003-.003-.0008-.0044-.0009-.0028-.002-.0053-.0028-.0076-.0009-.0022-.0015-.0047-.0023-.007-.0014-.0046-.0037-.009-.0053-.0138-1.2017-3.6587-4.6304-6.1156-8.5431-6.1156-3.9232 0-7.3606 2.4691-8.5535 6.144-.002.006-.002.0122-.004.0183-.7942 2.3047-.5062 5.3913.7737 8.2673 1.7516 3.9344 4.9297 6.668 7.7444 6.668.0135 0 .0267-.0003.04-.0003.0134 0 .0267.0003.0402.0003 2.8147-.0003 5.9928-2.7336 7.7443-6.668 1.2828-2.8813 1.5694-5.9748.7692-8.2812zm-6.1465 17.113c-.7906.2308-1.579.3479-2.343.3479h-.1116c-.7692 0-1.5629-.1185-2.3585-.3524-.373-.109-.7644.1007-.8754.4684-.1106.3682.1014.7554.4742.8647.926.272 1.8546.41 2.7597.41h.1115c.8993 0 1.822-.1363 2.742-.405.3731-.109.586-.4956.4756-.8639-.1101-.3683-.5015-.5794-.8745-.4698z"/></g></g></svg>