<svg height="40" viewBox="0 0 206 40" width="206" xmlns="http://www.w3.org/2000/svg"><g fill="none" fill-rule="evenodd"><rect fill="#49cc68" height="40" rx="20" width="206"/><g fill="#fff"><path d="m64.516 24.168c-2.688 0-4.802-1.96-4.802-4.83s2.114-4.83 4.802-4.83c1.652 0 2.8.784 3.542 1.848l-.966.546c-.532-.798-1.512-1.358-2.576-1.358-2.044 0-3.598 1.554-3.598 3.794 0 2.212 1.554 3.794 3.598 3.794 1.064 0 2.044-.574 2.576-1.358l.98.532c-.784 1.078-1.904 1.862-3.556 1.862zm7.952 0c-2.058 0-3.346-1.596-3.346-3.556s1.288-3.542 3.346-3.542 3.346 1.582 3.346 3.542-1.288 3.556-3.346 3.556zm0-.938c1.442 0 2.24-1.232 2.24-2.618 0-1.372-.798-2.604-2.24-2.604s-2.24 1.232-2.24 2.604c0 1.386.798 2.618 2.24 2.618zm10.668.77h-1.036v-4.424c0-1.204-.616-1.568-1.526-1.568-.826 0-1.596.504-2.002 1.05v4.942h-1.05v-6.762h1.05v.98c.476-.574 1.4-1.148 2.422-1.148 1.4 0 2.142.714 2.142 2.184zm7.728 0h-1.036v-4.424c0-1.204-.616-1.568-1.526-1.568-.826 0-1.596.504-2.002 1.05v4.942h-1.05v-6.762h1.05v.98c.476-.574 1.4-1.148 2.422-1.148 1.4 0 2.142.714 2.142 2.184zm5.18.168c-2.016 0-3.458-1.442-3.458-3.556 0-1.96 1.4-3.542 3.332-3.542 2.044 0 3.248 1.596 3.248 3.626v.266h-5.46c.084 1.274.966 2.338 2.422 2.338.784 0 1.554-.308 2.1-.868l.504.686c-.686.672-1.596 1.05-2.688 1.05zm2.086-3.99c-.014-.994-.686-2.24-2.226-2.24-1.442 0-2.156 1.218-2.212 2.24zm5.712 3.99c-2.016 0-3.374-1.554-3.374-3.556s1.358-3.542 3.374-3.542c1.232 0 1.96.504 2.478 1.176l-.7.63c-.448-.616-1.022-.868-1.722-.868-1.428 0-2.338 1.106-2.338 2.604s.91 2.618 2.338 2.618c.7 0 1.274-.28 1.722-.882l.7.644c-.518.672-1.246 1.176-2.478 1.176zm5.684 0c-1.008 0-1.512-.574-1.512-1.582v-4.424h-1.12v-.924h1.12v-1.848h1.064v1.848h1.372v.924h-1.372v4.2c0 .504.224.868.672.868.308 0 .574-.14.714-.294l.308.798c-.266.252-.644.434-1.246.434zm12.936-.168h-1.064l-1.764-5.432-1.764 5.432h-1.05l-2.156-6.762h1.092l1.652 5.39 1.778-5.39h.91l1.764 5.39 1.652-5.39h1.106zm3.892-7.728c-.392 0-.714-.308-.714-.7s.322-.714.714-.714.7.322.7.714-.308.7-.7.7zm.518 7.728h-1.05v-6.762h1.05zm3.822.168c-1.008 0-1.512-.574-1.512-1.582v-4.424h-1.12v-.924h1.12v-1.848h1.064v1.848h1.372v.924h-1.372v4.2c0 .504.224.868.672.868.308 0 .574-.14.714-.294l.308.798c-.266.252-.644.434-1.246.434zm8.022-.168h-1.05v-4.452c0-1.204-.602-1.54-1.526-1.54-.812 0-1.596.504-1.988 1.05v4.942h-1.05v-9.338h1.05v3.556c.462-.574 1.386-1.148 2.408-1.148 1.414 0 2.156.686 2.156 2.156zm9.814.168c-2.842 0-4.214-1.596-4.214-3.906v-5.6h2.016v5.544c0 1.302.756 2.198 2.198 2.198s2.184-.896 2.184-2.198v-5.544h2.03v5.6c0 2.31-1.372 3.906-4.214 3.906zm9.884 0c-.798 0-1.526-.336-2.086-1.036v3.444h-1.778v-9.338h1.778v.854c.518-.658 1.26-1.022 2.086-1.022 1.736 0 2.996 1.288 2.996 3.542s-1.26 3.556-2.996 3.556zm-.56-1.582c1.022 0 1.722-.798 1.722-1.974 0-1.162-.7-1.96-1.722-1.96-.574 0-1.218.322-1.526.77v2.38c.294.434.952.784 1.526.784zm11.214 1.414h-1.778v-4.116c0-.938-.49-1.232-1.246-1.232-.7 0-1.246.392-1.54.784v4.564h-1.792v-9.338h1.792v3.444c.434-.504 1.26-1.036 2.366-1.036 1.484 0 2.198.812 2.198 2.128zm4.9.168c-2.226 0-3.57-1.638-3.57-3.556s1.344-3.542 3.57-3.542c2.24 0 3.584 1.624 3.584 3.542s-1.344 3.556-3.584 3.556zm0-1.582c1.12 0 1.736-.91 1.736-1.974 0-1.05-.616-1.96-1.736-1.96-1.106 0-1.722.91-1.722 1.96 0 1.064.616 1.974 1.722 1.974zm6.692 1.414h-1.778v-9.338h1.778zm8.204 0h-1.792v-.868c-.532.672-1.26 1.036-2.086 1.036-1.694 0-2.996-1.288-2.996-3.556 0-2.198 1.274-3.542 2.996-3.542.798 0 1.554.336 2.086 1.036v-3.444h1.792zm-3.318-1.414c.588 0 1.232-.322 1.526-.77v-2.394c-.294-.448-.938-.77-1.526-.77-1.022 0-1.722.798-1.722 1.96 0 1.176.7 1.974 1.722 1.974z" fill-rule="nonzero"/><path d="m46 8h1v24h-1z" opacity=".24"/><path d="m31.4957 21.8694c-.5499 1.2353-1.2597 2.3426-2.0472 3.255.569-2.2066.2948-5.0554-.9367-7.8221-.6436-1.4458-1.4967-2.7464-2.4872-3.8067 1.55-1.2366 3.1635-1.6402 4.4105-1.0711.7987.3649 1.4153 1.1114 1.7822 2.1598.6951 1.9854.4254 4.709-.7216 7.2851zm-12.9916 0c-1.147-2.5761-1.4168-5.2997-.7216-7.2851.3668-1.0484.9831-1.795 1.7822-2.1598 1.247-.5694 2.8605-.1655 4.4105 1.0711-.9905 1.0603-1.8436 2.3609-2.4872 3.8064-1.2315 2.7667-1.5055 5.6158-.9368 7.822-.7875-.9123-1.4972-2.0196-2.0471-3.2546zm7.6582 5.5824c-.3576.1633-.7487.2487-1.1626.2543-.4136-.0056-.8046-.091-1.1625-.2543-2.401-1.0961-2.8867-5.4878-1.0606-9.5901.5794-1.3012 1.3405-2.4694 2.2217-3.4146.8818.9457 1.6448 2.1126 2.2246 3.4148 1.8264 4.1021 1.3407 8.4938-1.0606 9.59zm3.2606-16.6642c-1.423-.0584-2.9737.5426-4.4229 1.7406-1.4488-1.1982-2.9999-1.8001-4.4229-1.7417 1.2552-.8868 2.7882-1.3958 4.422-1.3958 1.6348 0 3.168.5096 4.4238 1.3969zm4.1306 3.3608c-.0003-.0014-.0003-.003-.0008-.0044-.0009-.0028-.002-.0053-.0028-.0076-.0009-.0022-.0015-.0047-.0023-.007-.0014-.0046-.0037-.009-.0053-.0138-1.2017-3.6587-4.6304-6.1156-8.5431-6.1156-3.9232 0-7.3606 2.4691-8.5535 6.144-.002.006-.002.0122-.004.0183-.7942 2.3047-.5062 5.3913.7737 8.2673 1.7516 3.9344 4.9297 6.668 7.7444 6.668.0135 0 .0267-.0003.04-.0003.0134 0 .0267.0003.0402.0003 2.8147-.0003 5.9928-2.7336 7.7443-6.668 1.2828-2.8813 1.5694-5.9748.7692-8.2812zm-6.1465 17.113c-.7906.2308-1.579.3479-2.343.3479h-.1116c-.7692 0-1.5629-.1185-2.3585-.3524-.373-.109-.7644.1007-.8754.4684-.1106.3682.1014.7554.4742.8647.926.272 1.8546.41 2.7597.41h.1115c.8993 0 1.822-.1363 2.742-.405.3731-.109.586-.4956.4756-.8639-.1101-.3683-.5015-.5794-.8745-.4698z"/></g></g></svg>